<?xml version="1.0" standalone="no"?><!DOCTYPE svg PUBLIC "-//W3C//DTD SVG 1.1//EN" "http://www.w3.org/Graphics/SVG/1.1/DTD/svg11.dtd"><svg t="1739088008181" class="icon" viewBox="0 0 1024 1024" version="1.1" xmlns="http://www.w3.org/2000/svg" p-id="19136" xmlns:xlink="http://www.w3.org/1999/xlink" width="200" height="200"><path d="M508.3136 947.2H204.8a25.6 25.6 0 0 1-25.6-25.6V102.4a25.6 25.6 0 0 1 25.6-25.6h614.4a25.6 25.6 0 0 1 25.6 25.6v356.1984a25.6 25.6 0 0 1-51.2 0V128h-563.2v768h277.9136a25.6 25.6 0 0 1 0 51.2z" p-id="19137" fill="#909399"></path><path d="M665.6 384H358.4a25.6 25.6 0 0 1 0-51.2h307.2a25.6 25.6 0 0 1 0 51.2zM563.2 537.6H358.4a25.6 25.6 0 0 1 0-51.2h204.8a25.6 25.6 0 0 1 0 51.2zM768 793.6c-70.6048 0-128-57.3952-128-128s57.3952-128 128-128 128 57.3952 128 128-57.3952 128-128 128z m0-204.8c-42.3424 0-76.8 34.4576-76.8 76.8s34.4576 76.8 76.8 76.8 76.8-34.4576 76.8-76.8-34.4576-76.8-76.8-76.8z" p-id="19138" fill="#909399"></path><path d="M921.6 947.2h-307.2a25.6 25.6 0 0 1-25.6-25.6c0-98.816 80.384-179.2 179.2-179.2s179.2 80.384 179.2 179.2a25.6 25.6 0 0 1-25.6 25.6z m-279.04-51.2h250.88c-11.8784-58.368-63.6416-102.4-125.44-102.4s-113.5616 44.032-125.44 102.4z" p-id="19139" fill="#909399"></path></svg>