<?xml version="1.0" standalone="no"?><!DOCTYPE svg PUBLIC "-//W3C//DTD SVG 1.1//EN" "http://www.w3.org/Graphics/SVG/1.1/DTD/svg11.dtd"><svg t="1739087940303" class="icon" viewBox="0 0 1024 1024" version="1.1" xmlns="http://www.w3.org/2000/svg" p-id="17998" xmlns:xlink="http://www.w3.org/1999/xlink" width="200" height="200"><path d="M861.8 367.5C779 289.8 587.9 114.4 587.9 114.4c-2.7-2.5-6-3.2-9.4-3.5-0.7-0.1-387.5-0.4-387.5-0.4-23.8 0-43.1 19.3-43.1 43.1v719.2c0 23.8 19.3 43.1 43.1 43.1h302.6c7.9 0 14.4-6.4 14.4-14.4 0-7.9-6.4-14.4-14.4-14.4H191c-7.9 0-14.4-6.5-14.4-14.4V153.6c0-7.9 6.4-14.4 14.4-14.4h372.8v210.1c0 23.8 19.3 43.1 43.1 43.1h230.8v171.3h0.1c0.3 7.7 6.5 13.8 14.3 13.8s14-6.2 14.3-13.8h0.1v-183c-0.2-0.4 1.4-7.4-4.7-13.2z m-255-3.8c-7.9 0-14.4-6.5-14.4-14.4V158l223.1 205.6H606.8z" fill="#909399" p-id="17999"></path><path d="M753.2 764.1h-56.9c-7.9 0-14.4-6.4-14.4-14.4v-50.9c0-7.9 6.4-14.4 14.4-14.4 7.9 0 14.4 6.4 14.4 14.4v36.5h42.5c7.9 0 14.4 6.4 14.4 14.4s-6.5 14.4-14.4 14.4z" fill="#909399" p-id="18000"></path><path d="M697.8 914.1c-93 0-168.7-75.7-168.7-168.7s75.7-168.7 168.7-168.7c93 0 168.7 75.7 168.7 168.7s-75.7 168.7-168.7 168.7z m0-308.7c-77.2 0-140 62.8-140 140s62.8 140 140 140 140-62.8 140-140-62.8-140-140-140z" fill="#909399" p-id="18001"></path></svg>