<?xml version="1.0" standalone="no"?><!DOCTYPE svg PUBLIC "-//W3C//DTD SVG 1.1//EN" "http://www.w3.org/Graphics/SVG/1.1/DTD/svg11.dtd"><svg t="1739088028810" class="icon" viewBox="0 0 1024 1024" version="1.1" xmlns="http://www.w3.org/2000/svg" p-id="20277" xmlns:xlink="http://www.w3.org/1999/xlink" width="200" height="200"><path d="M462.161683 1023.996537H106.892421a74.880232 74.880232 0 0 1-74.880232-74.880233V74.880232a74.880232 74.880232 0 0 1 74.880232-74.880232h728.743781a74.880232 74.880232 0 0 1 74.880232 74.880232v304.668945a28.080087 28.080087 0 0 1-28.080087 28.080088 28.080087 28.080087 0 0 1-28.080087-28.080088V84.240261a28.080087 28.080087 0 0 0-28.080087-28.080087H116.25245a28.080087 28.080087 0 0 0-28.080087 28.080087v855.516014a28.080087 28.080087 0 0 0 28.080087 28.080088h345.909233a28.080087 28.080087 0 0 1 28.080087 28.080087 28.080087 28.080087 0 0 1-28.080087 28.080087z" fill="#909399" p-id="20278"></path><path d="M234.048415 562.406705m18.720058 0l143.601566 0q18.720058 0 18.720058 18.720058l0 0q0 18.720058-18.720058 18.720058l-143.601566 0q-18.720058 0-18.720058-18.720058l0 0q0-18.720058 18.720058-18.720058Z" fill="#909399" p-id="20279"></path><path d="M234.048415 218.575398m18.720058 0l436.991676 0q18.720058 0 18.720058 18.720058l0 0q0 18.720058-18.720058 18.720058l-436.991676 0q-18.720058 0-18.720058-18.720058l0 0q0-18.720058 18.720058-18.720058Z" fill="#909399" p-id="20280"></path><path d="M234.048415 385.146475m18.720058 0l226.128942 0q18.720058 0 18.720058 18.720058l0 0q0 18.720058-18.720058 18.720058l-226.128942 0q-18.720058 0-18.720058-18.720058l0 0q0-18.720058 18.720058-18.720058Z" fill="#909399" p-id="20281"></path><path d="M288.851385 932.633293l-31.992579-34.154746 245.616522-230.116314 118.507328 111.019305 269.802837-252.767584 31.992579 34.145386-301.795416 282.747757-118.507328-111.009945L288.851385 932.633293z" fill="#909399" p-id="20282"></path><path d="M967.678131 609.394051l24.307996-146.119414-146.110054 14.704606 121.802058 131.414808z" fill="#909399" p-id="20283"></path></svg>