<?xml version="1.0" standalone="no"?><!DOCTYPE svg PUBLIC "-//W3C//DTD SVG 1.1//EN" "http://www.w3.org/Graphics/SVG/1.1/DTD/svg11.dtd"><svg t="1739086676765" class="icon" viewBox="0 0 1045 1024" version="1.1" xmlns="http://www.w3.org/2000/svg" p-id="15101" xmlns:xlink="http://www.w3.org/1999/xlink" width="204.1015625" height="200"><path d="M362.666667 128a21.333333 21.333333 0 0 1 21.333333 21.333333v64h298.666667V149.333333a21.333333 21.333333 0 0 1 21.333333-21.333333h42.666667a21.333333 21.333333 0 0 1 21.333333 21.333333v64h42.666667a85.333333 85.333333 0 0 1 85.226666 81.066667L896 298.666667v512a85.333333 85.333333 0 0 1-85.333333 85.333333H256a85.333333 85.333333 0 0 1-85.333333-85.333333V298.666667a85.333333 85.333333 0 0 1 85.333333-85.333334h42.666667V149.333333a21.333333 21.333333 0 0 1 21.333333-21.333333h42.666667z m448 170.666667H256v512h554.666667V298.666667zM512 597.333333a21.333333 21.333333 0 0 1 21.333333 21.333334v42.666666a21.333333 21.333333 0 0 1-21.333333 21.333334h-149.333333a21.333333 21.333333 0 0 1-21.333334-21.333334v-42.666666a21.333333 21.333333 0 0 1 21.333334-21.333334h149.333333z m192-170.666666a21.333333 21.333333 0 0 1 21.333333 21.333333v42.666667a21.333333 21.333333 0 0 1-21.333333 21.333333H362.666667a21.333333 21.333333 0 0 1-21.333334-21.333333v-42.666667a21.333333 21.333333 0 0 1 21.333334-21.333333h341.333333z" fill="#909399" p-id="15102"></path></svg>