<?xml version="1.0" standalone="no"?><!DOCTYPE svg PUBLIC "-//W3C//DTD SVG 1.1//EN" "http://www.w3.org/Graphics/SVG/1.1/DTD/svg11.dtd"><svg t="1739177796485" class="icon" viewBox="0 0 1024 1024" version="1.1" xmlns="http://www.w3.org/2000/svg" p-id="77867" xmlns:xlink="http://www.w3.org/1999/xlink" width="200" height="200"><path d="M870.912 952.832l-191.488-16.896v-18.944c0-16.384-13.824-30.72-30.208-30.72H374.272c-16.384 0-30.208 14.336-30.208 30.72v18.944l-191.488 16.896c-18.432 0-34.816 16.384-34.816 35.328s16.384 35.84 34.816 35.84h718.336c18.432 0 34.816-16.384 34.816-35.328 0.512-18.944-15.872-35.84-34.816-35.84zM901.12 0H123.392C54.784 0 0 56.832 0 128.512v574.976c0 71.68 54.272 128.512 123.392 128.512H901.12c68.608 0 123.392-56.832 123.392-128.512V128.512c0-71.68-54.784-128.512-123.392-128.512z m0 760.32H123.392c-30.72 0-54.784-24.576-54.784-56.832V128.512C68.608 96.256 92.16 71.68 123.392 71.68H901.12c30.72 0 54.784 24.576 54.784 56.832v574.976c0 32.256-24.064 56.832-54.784 56.832z" p-id="77868" fill="#ffffff"></path><path d="M358.4 295.424c-33.792 15.36-49.664 57.856-34.816 91.648 15.36 33.792 57.856 49.664 91.648 34.816 33.792-15.36 47.616-51.712 34.304-91.648-14.848-33.792-57.344-49.664-91.136-34.816zM685.056 517.12c-19.456 8.704-24.576 30.208-17.408 46.08 8.704 18.944 30.208 24.576 46.08 17.408 15.872-7.168 26.112-27.136 17.408-46.08-8.192-18.944-26.624-25.6-46.08-17.408z" p-id="77869" fill="#ffffff"></path><path d="M842.752 534.528c-2.048-3.584-5.632-4.608-9.216-3.584l-16.896-3.584-1.536-3.072 11.264-8.704c6.656-3.072 9.728-12.288 7.168-18.432l-8.704-18.944c0.512-8.192-5.632-12.8-15.36-8.704l-17.408 4.096-1.536-3.072 5.12-13.824c1.536-4.608 3.584-9.216 2.048-12.288l-4.096-9.728-17.92-14.848c-6.144-5.12-16.896-3.584-22.016 2.048l-12.8 13.312-4.608-1.536-2.56-14.336c1.536-4.608 0.512-7.68-4.096-9.728-1.536-3.072-6.144-5.12-10.752-6.656l-23.552-1.024c-4.608-1.536-7.68-0.512-9.728 4.608-3.072 1.536-5.12 6.144-3.584 9.216l-2.048 12.288-3.072 1.536-8.704-11.264c-3.072-6.144-12.288-9.728-18.432-7.168l-18.944 8.704c-6.656 3.584-9.728 11.264-7.168 18.432l4.096 17.408-3.072 1.536-13.824-5.12c-6.144-5.12-16.896-3.584-22.016 2.048l-1.536 4.608-5.632-12.8-19.456-17.92 1.536-4.608 22.016-2.048c12.288 2.048 23.552-7.168 25.6-19.456l3.072-33.28c0-7.68-1.024-10.752-4.096-17.408-3.072-6.144-10.752-6.656-12.288-9.728l-32.256-12.288-1.536-3.072 20.992-13.312c12.288-5.12 17.92-18.944 12.8-31.232 0-0.512-0.512-0.512-0.512-1.024l-14.336-31.744c-5.632-12.8-17.92-14.848-29.184-13.824l-23.552 7.168-1.536-3.072 11.776-24.576c2.048-5.632 3.584-11.264 3.584-16.896-3.072-6.656-5.632-12.8-10.24-14.336l-27.648-18.432c-6.144-5.12-10.752-6.656-16.896-3.584l-12.8 5.632-17.92 19.456-4.608-2.048-3.584-25.088c2.048-4.608-1.024-11.264-7.168-15.872-3.072-6.656-10.752-6.656-15.36-8.704l-32.768-4.608c-12.288-2.048-23.552 6.656-25.6 19.456l-7.168 26.112-3.072 1.536-13.312-20.992c-5.12-12.288-19.456-17.92-31.232-12.8-0.512 0-0.512 0.512-1.024 0.512L281.088 158.72c-12.8 5.632-17.92 19.456-13.824 29.184l6.656 23.552-2.56 1.536-26.112-7.168c-6.144-5.12-10.752-6.656-16.896-3.584-6.144 3.072-12.8 5.632-14.336 10.24l-18.432 27.648c-6.656 10.752-4.096 25.088 2.048 29.696l19.456 17.92-2.048 4.608-28.16 5.12c-4.608-1.536-10.752 1.024-15.872 7.168-6.656 3.072-6.656 10.752-8.192 15.36l-4.608 32.768c-0.512 7.68 1.024 10.752 4.096 17.408s10.752 6.656 12.288 9.728l26.112 7.168 1.536 3.072-20.992 13.312c-12.288 5.12-17.92 18.944-12.8 31.232 0 0.512 0.512 0.512 0.512 1.024l14.336 31.744c5.632 12.8 19.456 17.92 29.184 13.824l23.552-6.656 1.536 3.072-10.24 19.968c-6.656 10.752-4.096 24.576 6.656 31.744l27.648 18.432c6.144 5.12 10.752 6.656 16.896 3.584l12.8-5.632 17.92-19.456 4.608 1.536 11.776 25.6c-1.536 4.608 1.024 11.264 7.168 15.872 3.072 6.656 10.752 6.656 15.36 8.192l32.768 4.608c7.68 0 11.264-1.024 17.408-4.096s6.656-10.752 9.728-12.288l7.168-26.112 3.072-1.536 13.312 20.992c5.12 12.288 18.944 17.92 31.232 12.8 0.512 0 1.024-0.512 1.024-0.512l31.744-14.336c12.8-5.632 17.92-19.456 13.824-29.184l-6.656-23.552 3.072-1.536 19.968 10.24c6.144 4.608 10.752 6.656 16.896 3.584 6.144-3.072 12.8-5.632 14.336-10.24l11.776-16.896 3.072 6.144 13.824 12.8-2.048 4.608-14.336 2.56c-7.68-0.512-17.408 4.096-16.384 14.848l-1.024 23.552c-0.512 7.68 7.168 15.872 11.776 17.408l16.896 4.096 1.536 3.072-11.264 8.704c-6.144 3.072-9.728 12.288-7.168 18.432l8.704 18.944c2.56 6.144 12.288 9.728 18.432 7.168l17.408-4.096 1.536 3.072-5.12 13.824c-5.12 6.144-3.584 16.896 2.048 22.016l18.432 14.848c6.144 5.12 16.896 3.584 22.016-2.56l12.8-13.312 4.608 1.536 2.56 14.336c-1.536 4.608-0.512 7.68 4.096 9.728 1.536 3.072 6.144 5.12 10.752 6.656l23.552 1.024c4.608 2.048 7.68 0.512 9.728-4.096 3.072-1.536 5.12-6.144 3.584-9.216l3.584-16.896 3.072-1.536 8.704 11.264c3.072 6.144 12.288 9.728 18.432 7.168l18.944-8.704c6.144-2.56 9.728-12.288 7.168-18.432l-4.096-17.408 3.072-1.536 13.824 5.12c6.144 4.608 16.896 3.584 22.016-2.56l14.848-17.92c2.048-4.608 3.584-9.216 2.048-12.288l-4.096-9.728-13.824-12.8 1.536-4.608 14.336-2.56c7.68 0.512 15.872-7.168 16.384-14.848l1.024-23.552c2.56-4.608 1.536-7.68-3.072-9.216z m-406.016-71.68c-0.512 0.512-1.536 0.512-2.048 1.024-58.88 26.624-125.952 1.536-153.088-57.344-26.624-58.88-1.536-125.952 57.344-153.088 54.784-24.576 121.856 0.512 152.576 57.856 27.136 56.832 2.56 124.928-54.784 151.552z m287.232 136.704c-0.512 0-1.024 0.512-1.024 0.512-27.648 12.8-60.416 1.024-73.728-26.624 0-0.512-0.512-1.024-0.512-1.024-12.8-27.648-1.024-60.416 26.624-73.728 0.512 0 1.024-0.512 1.024-0.512 28.672-12.8 62.464 2.56 74.24 27.648 12.8 28.16 1.024 60.928-26.624 73.728z" p-id="77870" fill="#ffffff"></path></svg>