<?xml version="1.0" standalone="no"?><!DOCTYPE svg PUBLIC "-//W3C//DTD SVG 1.1//EN" "http://www.w3.org/Graphics/SVG/1.1/DTD/svg11.dtd"><svg t="1739177591660" class="icon" viewBox="0 0 1024 1024" version="1.1" xmlns="http://www.w3.org/2000/svg" p-id="68195" xmlns:xlink="http://www.w3.org/1999/xlink" width="200" height="200"><path d="M363.9 266.3h296.3v46H363.9zM363.9 361.1h296.3v46H363.9z" fill="#ffffff" p-id="68196"></path><path d="M815 114.1H573.4C566.6 86.5 541.7 66 512 66s-54.6 20.5-61.4 48.1H209c-25.4 0-46 20.7-46 46V912c0 25.4 20.6 46 46 46h606c25.4 0 46-20.7 46-46V160.1c0-25.3-20.6-46-46-46zM209 912V160.1h247.7c10.8 19.3 31.5 32.4 55.2 32.4 23.7 0 44.4-13.1 55.2-32.4H815V912H209z" fill="#ffffff" p-id="68197"></path><path d="M577.3 572.1L512 439.8 446.7 572l-146 21.2 105.6 102.9-24.9 145.4L512 773l130.5 68.6-24.9-145.4 105.6-102.9-145.9-21.2z m19.4 206.4L512 734l-84.7 44.5 16.2-94.3-68.5-66.8 94.7-13.8 42.3-85.8 42.3 85.8 94.7 13.8-68.5 66.8 16.2 94.3z" fill="#ffffff" p-id="68198"></path></svg>