<?xml version="1.0" standalone="no"?><!DOCTYPE svg PUBLIC "-//W3C//DTD SVG 1.1//EN" "http://www.w3.org/Graphics/SVG/1.1/DTD/svg11.dtd"><svg t="1739178193868" class="icon" viewBox="0 0 1024 1024" version="1.1" xmlns="http://www.w3.org/2000/svg" p-id="84832" xmlns:xlink="http://www.w3.org/1999/xlink" width="200" height="200"><path d="M145.706667 736h732.586666a30.08 30.08 0 0 0 30.016-29.994667v-22.101333H115.690667v22.101333c0 16.597333 13.504 29.994667 30.016 29.994667z" fill="#ffffff" p-id="84833"></path><path d="M878.293333 152.896H145.706667a70.08 70.08 0 0 0-70.016 69.994667v483.114666a70.08 70.08 0 0 0 70.016 69.994667h732.586666a70.08 70.08 0 0 0 70.016-69.994667V222.890667a70.08 70.08 0 0 0-70.016-69.973334z m30.016 530.986667v22.122666A30.08 30.08 0 0 1 878.293333 736H145.706667a30.08 30.08 0 0 1-30.016-29.994667V222.890667A30.08 30.08 0 0 1 145.706667 192.896h732.586666a30.08 30.08 0 0 1 30.016 29.994667v461.013333zM677.973333 871.125333H346.026667a20.053333 20.053333 0 0 1-20.010667-20.010666 20.053333 20.053333 0 0 1 20.010667-19.989334H677.973333a20.053333 20.053333 0 0 1 20.010667 19.989334 20.053333 20.053333 0 0 1-20.010667 20.010666z" fill="#ffffff" p-id="84834"></path><path d="M127.104 662.698667a9.962667 9.962667 0 0 1-6.698667-17.301334L356.906667 425.813333l106.090666 116.117334L721.92 251.2l183.701333 196.309333a9.962667 9.962667 0 1 1-14.506666 13.696l-168.789334-180.416-258.986666 290.901334-107.626667-117.696-221.781333 206.016a10.133333 10.133333 0 0 1-6.826667 2.688z" fill="#ffffff" p-id="84835"></path><path d="M156.394667 541.888a82.538667 82.538667 0 0 0 11.776 42.581333 82.986667 82.986667 0 0 0 43.072 35.392 84.373333 84.373333 0 0 0 19.754666 4.437334 82.837333 82.837333 0 0 0 57.386667-15.893334 78.613333 78.613333 0 0 0 9.194667-7.957333 82.816 82.816 0 0 0-90.133334-135.04 83.669333 83.669333 0 0 0-23.893333 15.146667 80.426667 80.426667 0 0 0-10.88 12.032 82.389333 82.389333 0 0 0-15.872 41.194666 82.133333 82.133333 0 0 0-0.405333 8.106667z" fill="#ffffff" p-id="84836"></path><path d="M179.797333 541.888a58.944 58.944 0 0 0 8.426667 30.506667 60.138667 60.138667 0 0 0 13.226667 15.36 57.792 57.792 0 0 0 12.288 7.786666 57.941333 57.941333 0 0 0 16.64 5.034667 62.506667 62.506667 0 0 0 11.626666 0.576 59.946667 59.946667 0 0 0 22.464-5.610667 59.221333 59.221333 0 0 0 31.36-70.848 60.714667 60.714667 0 0 0-7.424-15.744 59.605333 59.605333 0 0 0-32.085333-23.808 60.629333 60.629333 0 0 0-17.216-2.56 57.514667 57.514667 0 0 0-14.421333 1.792 59.904 59.904 0 0 0-23.210667 11.690667 58.688 58.688 0 0 0-14.677333 17.877333 59.882667 59.882667 0 0 0-6.698667 22.144 59.349333 59.349333 0 0 0-0.298667 5.802667z" fill="#ffffff" p-id="84837"></path><path d="M208.896 541.888a30.805333 30.805333 0 0 0 3.562667 14.293333 30.250667 30.250667 0 0 0 40.874666 12.437334 27.434667 27.434667 0 0 0 4.906667-3.306667 28.586667 28.586667 0 0 0 5.12-5.354667 31.893333 31.893333 0 0 0 4.181333-7.850666 33.066667 33.066667 0 0 0 1.621334-7.253334 34.368 34.368 0 0 0 0-5.930666 31.317333 31.317333 0 0 0-2.773334-9.984 30.805333 30.805333 0 0 0-8.128-10.453334 30.677333 30.677333 0 0 0-13.269333-6.293333 30.656 30.656 0 0 0-13.226667 0.32 27.818667 27.818667 0 0 0-5.568 2.005333 29.589333 29.589333 0 0 0-10.453333 8.170667 30.229333 30.229333 0 0 0-6.826667 19.2z" fill="#ffffff" p-id="84838"></path><path d="M580.906667 329.898667a83.328 83.328 0 0 0 11.754666 42.56 82.965333 82.965333 0 0 0 39.296 33.92 83.029333 83.029333 0 0 0 39.744 5.930666 85.397333 85.397333 0 0 0 15.914667-3.178666 84.864 84.864 0 0 0 18.496-8.213334 81.578667 81.578667 0 0 0 21.418667-18.496 82.154667 82.154667 0 0 0 15.210666-28.48 80.64 80.64 0 0 0 3.456-19.989333 83.328 83.328 0 0 0-7.829333-39.466667 84.8 84.8 0 0 0-10.837333-17.109333A82.538667 82.538667 0 0 0 635.733333 251.946667a83.029333 83.029333 0 0 0-40.896 31.957333 84.416 84.416 0 0 0-10.368 21.973333 83.136 83.136 0 0 0-3.562666 24.021334z" fill="#ffffff" p-id="84839"></path><path d="M604.288 329.898667a57.514667 57.514667 0 0 0 1.792 14.4 59.904 59.904 0 0 0 11.669333 23.210666 60.394667 60.394667 0 0 0 12.906667 11.690667 58.944 58.944 0 0 0 30.037333 9.92 60.202667 60.202667 0 0 0 22.890667-3.392 59.008 59.008 0 0 0 30.869333-25.344 57.941333 57.941333 0 0 0 6.677334-16.085333 58.666667 58.666667 0 0 0 0.64-25.962667 58.666667 58.666667 0 0 0-8.874667-21.376 57.450667 57.450667 0 0 0-9.472-11.008 58.389333 58.389333 0 0 0-17.130667-10.837333 59.008 59.008 0 0 0-31.402666-3.882667 59.733333 59.733333 0 0 0-24.234667 9.365333 59.605333 59.605333 0 0 0-23.808 32.085334 60.629333 60.629333 0 0 0-2.56 17.216z" fill="#ffffff" p-id="84840"></path><path d="M633.386667 329.898667a28.757333 28.757333 0 0 0 0.917333 7.36 29.610667 29.610667 0 0 0 5.034667 10.688 28.629333 28.629333 0 0 0 5.12 5.376 28.266667 28.266667 0 0 0 6.229333 3.968 32 32 0 0 0 7.04 2.325333 30.762667 30.762667 0 0 0 10.304 0.256 30.762667 30.762667 0 0 0 13.568-5.632 28.266667 28.266667 0 0 0 5.333333-5.12 28.629333 28.629333 0 0 0 3.968-6.272 32.149333 32.149333 0 0 0 2.325334-7.04 30.933333 30.933333 0 0 0-0.32-13.269333 31.018667 31.018667 0 0 0-5.056-10.688 30.165333 30.165333 0 0 0-54.442667 18.048z" fill="#ffffff" p-id="84841"></path><path d="M719.296 539.605333a45.013333 45.013333 0 0 0 2.005333 13.461334 44.970667 44.970667 0 0 0 5.802667 12.309333 47.04 47.04 0 0 0 12.778667 12.8 44.821333 44.821333 0 0 0 10.112 5.12 45.653333 45.653333 0 0 0 20.138666 2.474667 44.544 44.544 0 0 0 11.072-2.474667 46.293333 46.293333 0 0 0 30.186667-50.496 46.869333 46.869333 0 0 0-8.597333-20.842667 45.44 45.44 0 0 0-9.6-9.621333 45.482667 45.482667 0 0 0-16.341334-7.744 48.917333 48.917333 0 0 0-8.981333-1.344 44.864 44.864 0 0 0-11.306667 0.853333 49.024 49.024 0 0 0-8.682666 2.624 50.048 50.048 0 0 0-8 4.288 46.997333 46.997333 0 0 0-13.994667 14.72 48.746667 48.746667 0 0 0-4.586667 10.389334 46.442667 46.442667 0 0 0-2.005333 13.482666z" fill="#ffffff" p-id="84842"></path><path d="M732.394667 539.605333a31.957333 31.957333 0 0 0 1.429333 9.621334 32.874667 32.874667 0 0 0 9.472 14.976 34.517333 34.517333 0 0 0 8.106667 5.418666 34.346667 34.346667 0 0 0 9.322666 2.816 34.474667 34.474667 0 0 0 9.749334 0 31.594667 31.594667 0 0 0 7.829333-2.154666 34.346667 34.346667 0 0 0 9.6-6.08 34.496 34.496 0 0 0 6.186667-7.530667 33.130667 33.130667 0 0 0 1.514666-31.274667 33.130667 33.130667 0 0 0-25.130666-18.645333 34.474667 34.474667 0 0 0-9.749334 0 31.594667 31.594667 0 0 0-7.829333 2.176 37.12 37.12 0 0 0-5.76 3.072 33.962667 33.962667 0 0 0-9.130667 9.173333 33.173333 33.173333 0 0 0-5.610666 18.432z" fill="#ffffff" p-id="84843"></path><path d="M748.693333 539.605333a15.552 15.552 0 0 0 0.512 4.117334 14.933333 14.933333 0 0 0 1.109334 3.136 16.234667 16.234667 0 0 0 3.925333 5.333333 15.381333 15.381333 0 0 0 3.413333 2.410667 18.517333 18.517333 0 0 0 3.84 1.493333 14.762667 14.762667 0 0 0 3.285334 0.490667 17.856 17.856 0 0 0 4.928-0.490667 20.117333 20.117333 0 0 0 3.114666-1.130667 18.602667 18.602667 0 0 0 3.498667-2.218666 16.896 16.896 0 0 0 6.101333-11.477334 18.176 18.176 0 0 0-0.256-4.992 17.237333 17.237333 0 0 0-9.344-12.053333 18.56 18.56 0 0 0-3.925333-1.28 15.210667 15.210667 0 0 0-4.117333-0.32 15.253333 15.253333 0 0 0-4.074667 0.704 16.213333 16.213333 0 0 0-5.824 3.136 15.381333 15.381333 0 0 0-2.858667 3.008 19.477333 19.477333 0 0 0-2.026666 3.626667 21.632 21.632 0 0 0-0.789334 2.368 14.933333 14.933333 0 0 0-0.490666 3.306666 15.552 15.552 0 0 0 0 0.832z" fill="#ffffff" p-id="84844"></path><path d="M436.8 720.106667H275.2a8.96 8.96 0 0 1-9.002667-9.002667 8.96 8.96 0 0 1 9.002667-9.002667h161.6a8.96 8.96 0 0 1 9.002667 9.002667c0 4.906667-4.096 9.002667-9.002667 9.002667z m-216.192 0H194.090667a8.96 8.96 0 0 1-8.981334-9.002667 8.96 8.96 0 0 1 8.981334-9.002667h26.517333a8.96 8.96 0 0 1 8.981333 9.002667c0 4.906667-4.096 9.002667-8.981333 9.002667z" fill="#ffffff" p-id="84845"></path></svg>