<?xml version="1.0" standalone="no"?><!DOCTYPE svg PUBLIC "-//W3C//DTD SVG 1.1//EN" "http://www.w3.org/Graphics/SVG/1.1/DTD/svg11.dtd"><svg t="1739237756628" class="icon" viewBox="0 0 1024 1024" version="1.1" xmlns="http://www.w3.org/2000/svg" p-id="42166" xmlns:xlink="http://www.w3.org/1999/xlink" width="200" height="200"><path d="M401.408 797.696h229.888v115.2H401.408v-115.2z" fill="#ffffff" opacity=".5" p-id="42167"></path><path d="M937.984 31.232H94.72c-51.2 0-76.8 25.6-76.8 76.8v613.376c0 51.2 25.6 76.8 76.8 76.8h843.264c51.2 0 76.8-25.6 76.8-76.8V107.52c0-51.2-25.6-76.288-76.8-76.288zM171.52 184.32h536.576c25.6 0 38.4 12.8 38.4 38.4s-12.8 38.4-38.4 38.4H171.52c-25.6 0-38.4-12.8-38.4-38.4s12.8-38.4 38.4-38.4z m383.488 268.288H171.52c-25.6 0-38.4-12.8-38.4-38.4s12.8-38.4 38.4-38.4h383.488c25.6 0 38.4 12.8 38.4 38.4s-12.8 38.4-38.4 38.4zM839.68 604.16l65.536 113.664-66.56 38.4-65.536-113.664-97.28 56.32 24.576-264.192 241.152 111.104L839.68 604.16zM325.12 912.384h383.488c25.6 0 38.4 12.8 38.4 38.4s-12.8 38.4-38.4 38.4H325.12c-25.6 0-38.4-12.8-38.4-38.4s12.8-38.4 38.4-38.4z" fill="#ffffff" p-id="42168"></path></svg>