<?xml version="1.0" standalone="no"?><!DOCTYPE svg PUBLIC "-//W3C//DTD SVG 1.1//EN" "http://www.w3.org/Graphics/SVG/1.1/DTD/svg11.dtd"><svg t="1739236764003" class="icon" viewBox="0 0 1024 1024" version="1.1" xmlns="http://www.w3.org/2000/svg" p-id="12283" xmlns:xlink="http://www.w3.org/1999/xlink" width="200" height="200"><path d="M810.6 148H698c0 45.7-37.2 82.9-82.9 82.9H399.4c-45.7 0-82.9-37.2-82.9-82.9H213.4c-36.7 0-66.4 27.9-66.4 62.4v654.9c0 34.5 29.7 62.4 66.4 62.4h597.3c36.7 0 66.4-27.9 66.4-62.4V210.4C877 176 847.3 148 810.6 148zM419.1 345.8c23.9-25.2 54.8-38.3 92.9-39.6 38.1 1.4 69 14.6 92.9 39.7 24 25.2 36.2 55.2 36.9 90-0.6 38.1-13.6 69.2-38.7 93.4-25.2 24.1-55.5 36.6-91 37.2-35.5-1.4-65.8-14.6-91-39.7-25.3-25.2-38.1-55.5-38.7-91 0.5-34.9 12.9-64.9 36.7-90z m285.2 379.4c-6.8 9-15 13.9-24.8 14.6H344.6c-9.7 0-17.9-4.1-24.7-12.1-6.8-8.1-8.9-18.5-6.3-31.4 7.1-28.4 21.2-50.9 42.1-67.3 21-16.4 44.1-25 69.2-25.6h12.6c25.3 12.3 50 18.4 74.6 18.4 24.6 0 49.4-6.2 74.6-18.4h12.6c25.2 0.6 47.6 9.2 67.3 25.6 19.7 16.4 34.4 38.9 44.1 67.3 2.4 10.2 0.4 19.9-6.4 28.9z m0 0" p-id="12284" fill="#ffffff"></path><path d="M399.4 197.8h215.7c27.5 0 49.8-22.3 49.8-49.8 0-27.5-22.3-49.8-49.8-49.8H399.4c-27.5 0-49.8 22.3-49.8 49.8 0.1 27.5 22.3 49.8 49.8 49.8z m0 0" p-id="12285" fill="#ffffff"></path></svg>