<?xml version="1.0" standalone="no"?><!DOCTYPE svg PUBLIC "-//W3C//DTD SVG 1.1//EN" "http://www.w3.org/Graphics/SVG/1.1/DTD/svg11.dtd"><svg t="1739236871410" class="icon" viewBox="0 0 1024 1024" version="1.1" xmlns="http://www.w3.org/2000/svg" p-id="18695" xmlns:xlink="http://www.w3.org/1999/xlink" width="200" height="200"><path d="M721.088 109.4c65.78 0 117.612 51.304 117.612 112.2v580.8c-0.09 60.896-51.923 112.2-117.612 112.2H302.912c-65.78 0-117.612-51.304-117.612-112.2V221.6c0-60.806 51.742-112.2 117.612-112.2h418.176z m-58.936 645.253H363.117c-12.71 0-23.059 9.763-23.059 21.945 0 12.096 10.35 21.945 23.059 21.945h299.035c12.71 0 23.058-9.762 23.058-21.945 0-12.095-10.349-21.945-23.058-21.945z m0-92.707H363.117c-12.71 0-23.059 9.763-23.059 21.945 0 12.096 10.35 21.945 23.059 21.945h299.035c12.71 0 23.058-9.85 23.058-21.945 0-12.096-10.349-21.945-23.058-21.945z m-128.093-414.57c-7.808-15.956-33.59-15.956-41.397 0l-38.582 78.86-86.152 12.655c-8.624 1.284-15.887 7.428-18.61 15.864-2.724 8.436-0.454 17.698 5.81 23.934l62.367 61.438-14.707 86.655c-1.452 8.803 2.088 17.606 9.17 22.833 7.171 5.227 16.522 5.869 24.329 1.742l77.073-40.897 77.074 40.897c3.36 1.743 7.081 2.66 10.712 2.66 4.812 0 9.533-1.468 13.618-4.402 7.08-5.227 10.621-14.122 9.169-22.833l-14.707-86.655 62.367-61.438c6.264-6.236 8.534-15.498 5.81-23.934-2.723-8.436-9.895-14.58-18.61-15.864l-86.152-12.654z" fill="#ffffff" p-id="18696"></path></svg>