<?xml version="1.0" standalone="no"?><!DOCTYPE svg PUBLIC "-//W3C//DTD SVG 1.1//EN" "http://www.w3.org/Graphics/SVG/1.1/DTD/svg11.dtd"><svg t="1739177674843" class="icon" viewBox="0 0 1024 1024" version="1.1" xmlns="http://www.w3.org/2000/svg" p-id="72318" xmlns:xlink="http://www.w3.org/1999/xlink" width="200" height="200"><path d="M841.309091 23.272727v977.454546H23.272727V23.272727h818.036364m23.272727-23.272727H0v1024h864.581818V0z" fill="#ffffff" p-id="72319"></path><path d="M1000.727273 304.872727V1000.727273h-136.843637V304.872727H1000.727273m23.272727-23.272727h-183.389091V1024H1024V281.6z" fill="#ffffff" p-id="72320"></path><path d="M956.043636 592.756364h-40.96a11.869091 11.869091 0 0 1-11.636363-11.636364 11.636364 11.636364 0 0 1 11.636363-11.636364h40.96a11.636364 11.636364 0 0 1 11.636364 11.636364 11.636364 11.636364 0 0 1-11.636364 11.636364zM952.785455 458.007273h-40.96a11.869091 11.869091 0 0 1-11.636364-11.636364 11.636364 11.636364 0 0 1 11.636364-11.636364h40.96a11.636364 11.636364 0 0 1 11.636363 11.636364 11.636364 11.636364 0 0 1-11.636363 11.636364zM181.527273 174.08H139.636364a11.636364 11.636364 0 1 1 0-23.272727h41.890909a11.636364 11.636364 0 1 1 0 23.272727zM179.898182 316.043636H139.636364a11.636364 11.636364 0 0 1 0-23.272727h40.261818a11.636364 11.636364 0 1 1 0 23.272727zM952.785455 727.272727h-40.96a11.636364 11.636364 0 0 1-11.636364-11.636363 11.869091 11.869091 0 0 1 11.636364-11.636364h40.96a11.636364 11.636364 0 0 1 11.636363 11.636364 11.636364 11.636364 0 0 1-11.636363 11.636363zM952.785455 861.090909h-40.96a11.636364 11.636364 0 0 1 0-23.272727h40.96a11.636364 11.636364 0 0 1 0 23.272727zM183.156364 592.756364H142.196364a11.869091 11.869091 0 0 1-11.636364-11.636364 11.636364 11.636364 0 0 1 11.636364-11.636364h40.96a11.636364 11.636364 0 0 1 11.636363 11.636364 11.636364 11.636364 0 0 1-11.636363 11.636364zM179.898182 458.007273H139.636364a11.636364 11.636364 0 0 1-11.636364-11.636364 11.636364 11.636364 0 0 1 11.636364-11.636364h40.261818a11.636364 11.636364 0 0 1 11.636363 11.636364 11.636364 11.636364 0 0 1-11.636363 11.636364zM179.898182 727.272727H139.636364a11.636364 11.636364 0 0 1-11.636364-11.636363 11.636364 11.636364 0 0 1 11.636364-11.636364h40.261818a11.636364 11.636364 0 0 1 11.636363 11.636364 11.636364 11.636364 0 0 1-11.636363 11.636363zM179.898182 861.090909H139.636364a11.636364 11.636364 0 1 1 0-23.272727h40.261818a11.636364 11.636364 0 0 1 0 23.272727zM703.069091 174.08h-40.96a11.636364 11.636364 0 0 1 0-23.272727h40.96a11.636364 11.636364 0 0 1 0 23.272727zM701.44 316.043636h-40.96a11.636364 11.636364 0 0 1 0-23.272727h40.96a11.636364 11.636364 0 0 1 0 23.272727zM704.698182 592.756364h-40.96A11.636364 11.636364 0 0 1 651.636364 581.818182a11.636364 11.636364 0 0 1 11.636363-11.636364h40.96a11.636364 11.636364 0 0 1 11.636364 11.636364 11.636364 11.636364 0 0 1-11.170909 10.938182zM701.44 458.007273h-40.96a11.636364 11.636364 0 0 1-11.636364-11.636364 11.636364 11.636364 0 0 1 11.636364-11.636364h40.96a11.636364 11.636364 0 0 1 11.636364 11.636364 11.636364 11.636364 0 0 1-11.636364 11.636364zM701.44 727.272727h-40.96a11.636364 11.636364 0 0 1-11.636364-11.636363 11.636364 11.636364 0 0 1 11.636364-11.636364h40.96a11.636364 11.636364 0 0 1 11.636364 11.636364 11.636364 11.636364 0 0 1-11.636364 11.636363zM701.44 861.090909h-40.96a11.636364 11.636364 0 0 1 0-23.272727h40.96a11.636364 11.636364 0 1 1 0 23.272727zM442.181818 179.665455h-40.727273a11.636364 11.636364 0 0 1 0-23.272728H442.181818a11.636364 11.636364 0 0 1 0 23.272728zM440.552727 321.629091h-40.96a11.636364 11.636364 0 0 1 0-23.272727h40.96a11.636364 11.636364 0 0 1 0 23.272727zM444.043636 598.109091h-40.96a11.636364 11.636364 0 0 1-11.636363-11.636364 11.636364 11.636364 0 0 1 11.636363-11.636363h40.96a11.869091 11.869091 0 0 1 11.636364 11.636363 11.636364 11.636364 0 0 1-11.636364 11.636364zM440.552727 463.592727h-40.96a11.869091 11.869091 0 0 1-11.636363-11.636363 11.636364 11.636364 0 0 1 11.636363-11.636364h40.96a11.636364 11.636364 0 0 1 11.636364 11.636364 11.636364 11.636364 0 0 1-11.636364 11.636363zM440.552727 732.858182h-40.96a11.636364 11.636364 0 0 1-11.636363-11.636364 11.869091 11.869091 0 0 1 11.636363-11.636363h40.96a11.636364 11.636364 0 0 1 11.636364 11.636363 11.636364 11.636364 0 0 1-11.636364 11.636364zM440.552727 867.607273h-40.96a11.636364 11.636364 0 0 1 0-23.272728h40.96a11.636364 11.636364 0 0 1 0 23.272728z" fill="#ffffff" p-id="72321"></path></svg>