<?xml version="1.0" standalone="no"?><!DOCTYPE svg PUBLIC "-//W3C//DTD SVG 1.1//EN" "http://www.w3.org/Graphics/SVG/1.1/DTD/svg11.dtd"><svg t="1739237070948" class="icon" viewBox="0 0 1024 1024" version="1.1" xmlns="http://www.w3.org/2000/svg" p-id="28023" xmlns:xlink="http://www.w3.org/1999/xlink" width="200" height="200"><path d="M527.296 224c115.872 0 210.24 91.968 214.144 206.88l0.128 7.36-0.128 6.336a168.32 168.32 0 0 1-45.792 330.4l-7.264-0.16a168.384 168.384 0 0 1-160.384-152.928h52.48a16 16 0 0 0 11.328-27.296l-72.48-72.48a32 32 0 0 0-45.248 0l-72.512 72.48a16 16 0 0 0 11.328 27.328h53.184c0 71.424 25.504 122.432 76.544 153.024h-198.976A183.68 183.68 0 0 1 314.88 409.92 214.336 214.336 0 0 1 527.296 224z" fill="#ffffff" p-id="28024"></path></svg>