<?xml version="1.0" standalone="no"?><!DOCTYPE svg PUBLIC "-//W3C//DTD SVG 1.1//EN" "http://www.w3.org/Graphics/SVG/1.1/DTD/svg11.dtd"><svg t="1739089102554" class="icon" viewBox="0 0 1024 1024" version="1.1" xmlns="http://www.w3.org/2000/svg" p-id="23092" xmlns:xlink="http://www.w3.org/1999/xlink" width="200" height="200"><path d="M693.154841 573.069926a262.19977 262.19977 0 0 1 122.379892 223.199804 32.659971 32.659971 0 0 1-65.179942 0 197.629826 197.629826 0 0 0-92.189919-167.999852 32.329972 32.329972 0 0 1-10.339991-44.539961l0.309999-0.48a32.999971 32.999971 0 0 1 44.999961-10.119991zM286.925198 796.22973a262.579769 262.579769 0 0 1 146.069871-235.849793 206.929818 206.929818 0 0 1 117.999897-376.839668c114.559899 0.32 207.169818 93.449918 206.849818 207.999817a206.229819 206.229819 0 0 1-206.429819 205.749819c-109.809903 0.23-198.779825 89.179922-198.999825 198.999825a32.709971 32.709971 0 1 1-65.409942 0z m123.309891-405.349644a141.064876 141.064876 0 0 0 282.129752 0.09 141.289876 141.289876 0 0 0-140.899876-140.999876h-0.09a141.369876 141.369876 0 0 0-141.139876 140.909876zM986.624583 37.140397a125.999889 125.999889 0 0 1 36.999967 89.669922v770.329322a127.869888 127.869888 0 0 1-36.999967 89.669922 126.439889 126.439889 0 0 1-89.909921 37.189967H205.885269a127.279888 127.279888 0 0 1-126.999888-126.859889V773.50975a32.709971 32.709971 0 0 1 65.409942 0v123.629891a61.769946 61.769946 0 0 0 61.489946 61.489946h690.999393a61.589946 61.589946 0 0 0 61.489946-61.489946V126.900318a61.449946 61.449946 0 0 0-61.449946-61.449946H205.745269a61.629946 61.629946 0 0 0-61.539946 61.399947v112.8199a32.749971 32.749971 0 0 1-65.359942 0V126.860319A127.199888 127.199888 0 0 1 205.745269 0.00043h690.999393a126.529889 126.529889 0 0 1 89.879921 37.139967zM32.995421 374.460101a32.659971 32.659971 0 1 1 0-65.319943h157.119862a32.659971 32.659971 0 1 1 0 65.319943z m180.309842 312.269725a33.129971 33.129971 0 0 1-23.22998 9.609992H32.995421a32.669971 32.669971 0 0 1 0-65.339943h157.119862a32.659971 32.659971 0 0 1 23.18998 55.709951zM32.995421 535.509959a32.659971 32.659971 0 0 1 0-65.319942h157.079862a32.659971 32.659971 0 0 1 0 65.319942z" fill="#909399" p-id="23093"></path></svg>