<?xml version="1.0" standalone="no"?><!DOCTYPE svg PUBLIC "-//W3C//DTD SVG 1.1//EN" "http://www.w3.org/Graphics/SVG/1.1/DTD/svg11.dtd"><svg t="1739177695133" class="icon" viewBox="0 0 1024 1024" version="1.1" xmlns="http://www.w3.org/2000/svg" p-id="73386" xmlns:xlink="http://www.w3.org/1999/xlink" width="200" height="200"><path d="M692.28981 1023.998837a11.165385 11.165385 0 0 1-7.908814-3.256571L3.525138 340.351632a11.397997 11.397997 0 0 1-3.256571-10.70016 11.397997 11.397997 0 0 1 7.676202-8.141426L1008.874991 0.505234a11.863221 11.863221 0 0 1 11.630609 2.791346 11.863221 11.863221 0 0 1 2.791346 11.630609l-320.074363 1000.232385a11.630609 11.630609 0 0 1-8.141426 7.676202zM32.834273 337.327674L687.172342 991.433131 994.91826 29.349144z" fill="#ffffff" p-id="73387"></path><path d="M331.508315 663.217342a11.863221 11.863221 0 0 1-8.374038-3.489183 11.630609 11.630609 0 0 1 0-16.050241L1004.687972 3.529192a11.630609 11.630609 0 0 1 16.05024 0 11.863221 11.863221 0 0 1 0 16.282853l-681.553695 640.381338a10.70016 10.70016 0 0 1-7.676202 3.023959zM249.861439 659.960771a11.397997 11.397997 0 0 1-9.071875-4.652243L2.594689 339.188571a11.397997 11.397997 0 0 1 2.326122-16.05024 11.165385 11.165385 0 0 1 15.817628 2.326122l238.194875 316.352568a11.397997 11.397997 0 0 1-9.071875 18.14375z" fill="#ffffff" p-id="73388"></path><path d="M220.784916 951.191224h-1.163061a11.165385 11.165385 0 0 1-10.002323-12.561058l29.309135-291.230453a11.165385 11.165385 0 0 1 12.328445-10.234936 11.397997 11.397997 0 0 1 10.234936 12.561058L232.88075 940.956288a11.165385 11.165385 0 0 1-12.095834 10.234936z" fill="#ffffff" p-id="73389"></path><path d="M220.784916 951.191224a13.491507 13.491507 0 0 1-4.187019 0 11.397997 11.397997 0 0 1-6.978365-15.585016l110.723398-287.74127a11.397997 11.397997 0 0 1 14.654568-6.513141 11.165385 11.165385 0 0 1 6.513141 14.654567L231.252465 943.747634a11.165385 11.165385 0 0 1-10.467549 7.44359z" fill="#ffffff" p-id="73390"></path><path d="M220.784916 951.191224a11.397997 11.397997 0 0 1-7.443589-2.791346 11.630609 11.630609 0 0 1-1.395674-16.050241l147.476124-174.924361a11.397997 11.397997 0 1 1 17.213302 14.654567l-147.243512 174.924362a10.70016 10.70016 0 0 1-8.606651 4.187019z" fill="#ffffff" p-id="73391"></path><path d="M692.28981 1023.998837a10.467548 10.467548 0 0 1-6.745753-2.326122L361.050062 773.708129a11.397997 11.397997 0 0 1-2.093509-15.817629 11.165385 11.165385 0 0 1 16.05024-2.09351l324.261383 247.731975a11.397997 11.397997 0 0 1 2.09351 16.05024 11.863221 11.863221 0 0 1-9.071876 4.419632z" fill="#ffffff" p-id="73392"></path></svg>