<?xml version="1.0" standalone="no"?><!DOCTYPE svg PUBLIC "-//W3C//DTD SVG 1.1//EN" "http://www.w3.org/Graphics/SVG/1.1/DTD/svg11.dtd"><svg t="1739177329895" class="icon" viewBox="0 0 1462 1024" version="1.1" xmlns="http://www.w3.org/2000/svg" p-id="57116" xmlns:xlink="http://www.w3.org/1999/xlink" width="285.546875" height="200"><path d="M63.340981 1009.152172l460.575242-833.614126C636.364751 2.615705 889.816446 2.615705 1002.264974 175.552675l55.251475 84.96176c-140.695972 9.61086-261.409547 91.749338-324.867555 209.37632l-76.652828 117.861036C535.926141 772.391483 330.470233 1009.152172 110.064098 1009.152172H63.340981z" fill="#00D6FF" p-id="57117"></path><path d="M600.188712 295.286147c96.737623-165.447228 329.49013-172.644402 452.207796-34.142691 1.345813-0.102399 2.633112-0.321825 3.978925-0.409595l-55.266103-84.96176c-112.448527-172.922342-365.885595-172.922342-478.348751 0L62.214594 1009.371598h6.143929c37.682764-24.590344 205.646078-156.319105 531.844818-714.085451" fill="#FFFFFF" opacity=".5" p-id="57118"></path><path d="M290.958919 529.325953l86.044261-155.73397c-76.550428-102.588984-90.35964-178.173938-55.046677-234.27386 27.852478-44.280173 92.041906-61.483174 179.636779-54.75411 44.046119 3.364532 87.594872-8.455216 126.199225-29.944339l0.585136-0.321825C313.589057-29.230327 66.120378-18.259025 11.849006 100.289546c-49.092918 107.226188 56.377862 262.097081 279.109913 429.036407" fill="#26B2FF" p-id="57119"></path><path d="M781.56627 451.473596l88.618861 136.263566c120.069925 184.65432 325.511205 421.400381 545.931968 421.400381H1462.840216l-24.239263-37.25854-364.773836-680.937492c-119.733472 8.586872-224.750771 69.777478-292.275475 160.532085" fill="#0095E7" p-id="57120"></path><path d="M732.648894 469.876126l30.427076-46.810887 18.475672 28.393729c67.524704-90.739979 172.542003-151.930585 292.275475-160.502828l-6.904606-12.91688-11.293126-17.349285c-139.89141 10.210625-259.815051 92.071163-322.980491 209.186151" fill="#007BBE" p-id="57121"></path><path d="M836.04244 771.835604a2184.722605 2184.722605 0 0 1-180.529111-126.491794 1632.120085 1632.120085 0 0 1-59.040231 81.611856c54.11046 29.242176 110.663862 57.635904 169.718722 84.610678 206.362869 94.265424 410.51685 160.912424 580.016145 190.096086-144.19216-33.68921-328.11506-115.505863-510.165525-229.826826" fill="#26B2FF" p-id="57122"></path></svg>